HIERARCHY
ROOT Hips
{
	OFFSET 0.000000 0.000000 0.000000
	CHANNELS 6 Xposition Yposition Zposition Zrotation Yrotation Xrotation 
	JOINT LHipJoint
	{
		OFFSET 0.000000 0.000000 0.000000
		CHANNELS 3 Zrotation Yrotation Xrotation
		JOINT LeftUpLeg
		{
			OFFSET 1.363060 -1.794630 0.839290
			CHANNELS 3 Zrotation Yrotation Xrotation
			JOINT LeftLeg
			{
				OFFSET 2.448110 -6.726130 0.000000
				CHANNELS 3 Zrotation Yrotation Xrotation
				JOINT LeftFoot
				{
					OFFSET 2.562200 -7.039590 0.000000
					CHANNELS 3 Zrotation Yrotation Xrotation
					JOINT LeftToeBase
					{
						OFFSET 0.157640 -0.433110 2.322550
						CHANNELS 3 Zrotation Yrotation Xrotation
						End Site
						{
							OFFSET 0.000000 0.000000 0.000000
						}
					}
				}
			}
		}
	}
	JOINT RHipJoint
	{
		OFFSET 0.000000 0.000000 0.000000
		CHANNELS 3 Zrotation Yrotation Xrotation
		JOINT RightUpLeg
		{
			OFFSET -1.305520 -1.794630 0.839290
			CHANNELS 3 Zrotation Yrotation Xrotation
			JOINT RightLeg
			{
				OFFSET -2.542530 -6.985550 0.000000
				CHANNELS 3 Zrotation Yrotation Xrotation
				JOINT RightFoot
				{
					OFFSET -2.568260 -7.056230 0.000000
					CHANNELS 3 Zrotation Yrotation Xrotation
					JOINT RightToeBase
					{
						OFFSET -0.164730 -0.452590 2.363150
						CHANNELS 3 Zrotation Yrotation Xrotation
						End Site
						{
							OFFSET 0.000000 0.000000 0.000000
						}
					}
				}
			}
		}
	}
	JOINT LowerBack
	{
		OFFSET 0.000000 0.000000 0.000000
		CHANNELS 3 Zrotation Yrotation Xrotation
		JOINT Spine
		{
			OFFSET 0.028270 2.035590 -0.193380
			CHANNELS 3 Zrotation Yrotation Xrotation
			JOINT Spine1
			{
				OFFSET 0.056720 2.048850 -0.042750
				CHANNELS 3 Zrotation Yrotation Xrotation
				JOINT Neck
				{
					OFFSET 0.000000 0.000000 0.000000
					CHANNELS 3 Zrotation Yrotation Xrotation
					JOINT Neck1
					{
						OFFSET -0.054170 1.746240 0.172020
						CHANNELS 3 Zrotation Yrotation Xrotation
						JOINT Head
						{
							OFFSET 0.104070 1.761360 -0.123970
							CHANNELS 3 Zrotation Yrotation Xrotation
							End Site
							{
								OFFSET 0.000000 0.000000 0.000000
							}
						}
					}
				}
				JOINT LeftShoulder
				{
					OFFSET 0.000000 0.000000 0.000000
					CHANNELS 3 Zrotation Yrotation Xrotation
					JOINT LeftArm
					{
						OFFSET 3.362410 1.200890 -0.311210
						CHANNELS 3 Zrotation Yrotation Xrotation
						JOINT LeftForeArm
						{
							OFFSET 4.983000 -0.000000 -0.000000
							CHANNELS 3 Zrotation Yrotation Xrotation
							JOINT LeftHand
							{
								OFFSET 3.483560 -0.000000 -0.000000
								CHANNELS 3 Zrotation Yrotation Xrotation
								JOINT LeftFingerBase
								{
									OFFSET 0.000000 0.000000 0.000000
									CHANNELS 3 Zrotation Yrotation Xrotation
									JOINT LeftHandIndex1
									{
										OFFSET 0.715260 -0.000000 -0.000000
										CHANNELS 3 Zrotation Yrotation Xrotation
										End Site
										{
											OFFSET 0.000000 0.000000 0.000000
										}
									}
								}
								JOINT LThumb
								{
									OFFSET 0.000000 0.000000 0.000000
									CHANNELS 3 Zrotation Yrotation Xrotation
									End Site
									{
										OFFSET 0.000000 0.000000 0.000000
									}
								}
							}
						}
					}
				}
				JOINT RightShoulder
				{
					OFFSET 0.000000 0.000000 0.000000
					CHANNELS 3 Zrotation Yrotation Xrotation
					JOINT RightArm
					{
						OFFSET -3.136600 1.374050 -0.404650
						CHANNELS 3 Zrotation Yrotation Xrotation
						JOINT RightForeArm
						{
							OFFSET -5.241900 -0.000000 -0.000000
							CHANNELS 3 Zrotation Yrotation Xrotation
							JOINT RightHand
							{
								OFFSET -3.444170 -0.000000 -0.000000
								CHANNELS 3 Zrotation Yrotation Xrotation
								JOINT RightFingerBase
								{
									OFFSET 0.000000 0.000000 0.000000
									CHANNELS 3 Zrotation Yrotation Xrotation
									JOINT RightHandIndex1
									{
										OFFSET -0.622530 -0.000000 -0.000000
										CHANNELS 3 Zrotation Yrotation Xrotation
										End Site
										{
											OFFSET 0.000000 0.000000 0.000000
										}
									}
								}
								JOINT RThumb
								{
									OFFSET 0.000000 0.000000 0.000000
									CHANNELS 3 Zrotation Yrotation Xrotation
									End Site
									{
										OFFSET 0.000000 0.000000 0.000000
									}
								}
							}
						}
					}
				}
			}
		}
	}
}
MOTION
Frames: 10
Frame Time: 0.008333
-2.422257 15.899176 -0.928720 51.333691 84.134519 77.704539 -12.202649 1.178207 -5.413854 -4.895661 14.065515 -27.624502 -1.061171 3.840487 55.763323 0.248674 -1.411359 -1.548257 -0.127200 0.000000 -77.877200 7.551893 1.009044 -2.527558 20.157249 -2.550242 -65.053173 2.223874 -4.547616 50.050433 -3.235883 -8.681094 -20.348609 -178.380701 -0.000000 -14.911200 5.466485 -3.083684 10.762733 0.463791 -2.995529 -0.848123 -5.411911 -2.983740 -0.683582 6.807105 -8.176220 -6.157874 -3.192441 -0.227227 -0.014575 0.000000 0.000000 0.000000 3.862050 3.564827 1.648985 -54.403410 -9.922213 7.572751 -179.732344 -87.897868 179.984721 1.138695 6.308132 0.066458 -0.105996 0.280412 -0.000000 0.000000 0.000000 0.000000 0.000000 0.000000 0.000000 10.586141 -5.451045 1.975951 72.514614 -12.736948 2.485759 1.020283 60.400955 -0.010243 -4.084059 0.917370 -0.039037 0.066547 -0.174577 -0.000000 0.000000 0.000000 0.000000 0.000000 0.000000 0.000000 
-2.291742 15.886685 -0.871173 50.213174 83.869400 76.454153 -12.234818 1.205044 -5.409581 -4.680786 14.064011 -27.832761 -0.876414 3.936811 56.916532 0.273961 -1.624869 0.289499 -0.221400 -0.000001 -77.214400 7.604912 1.053064 -2.608261 20.045369 -2.615076 -64.641884 2.165665 -4.574816 50.909729 -3.274830 -8.627197 -21.357468 -178.164900 0.000000 -14.825900 5.482616 -3.054236 10.826018 0.470145 -2.961584 -0.847635 -5.389777 -2.951940 -0.718821 6.900096 -7.852768 -6.005928 -3.197664 -0.228839 0.026910 0.000000 0.000000 0.000000 3.850902 3.485322 1.665652 -55.215911 -9.196071 8.161451 -179.790739 -88.755091 179.986750 0.904446 6.213261 0.053045 -0.099928 0.275073 -0.000000 0.000000 0.000000 0.000000 0.000000 0.000000 0.000000 10.666147 -5.145082 1.927205 72.523300 -11.626201 2.214068 1.014207 60.114054 -0.011131 -4.303236 0.887684 -0.040040 0.068265 -0.177365 -0.000000 0.000000 0.000000 0.000000 0.000000 0.000000 0.000000 
-2.162873 15.875162 -0.813468 49.374337 83.593436 75.488934 -12.257074 1.224915 -5.397935 -4.522062 14.016301 -28.072493 -0.694012 4.022759 58.057284 0.317888 -1.754820 2.139770 -0.327500 0.000001 -75.834400 7.664244 1.096092 -2.689402 19.921415 -2.718934 -64.222231 2.114437 -4.599356 51.704604 -3.302550 -8.545611 -22.290787 -177.971399 -0.000000 -14.805901 5.482748 -3.025954 10.882538 0.472801 -2.929501 -0.846423 -5.368530 -2.921878 -0.746569 7.002832 -7.553019 -5.852575 -3.198225 -0.230149 0.068997 0.000000 0.000000 0.000000 3.834405 3.401425 1.682997 -56.015786 -8.490023 8.758933 -179.855184 -89.705087 179.988887 0.643106 6.118097 0.038530 -0.093447 0.269237 -0.000000 0.000000 0.000000 0.000000 0.000000 0.000000 0.000000 10.743268 -4.868002 1.871341 72.541375 -10.479662 1.918075 1.004487 59.866263 -0.012132 -4.543460 0.847166 -0.040843 0.070135 -0.180285 -0.000000 0.000000 0.000000 0.000000 0.000000 0.000000 0.000000 
-2.035597 15.864966 -0.756141 48.680345 83.310409 74.684385 -12.272889 1.235744 -5.377320 -4.415021 13.927279 -28.359810 -0.518389 4.098952 59.180069 0.378957 -1.780784 3.946128 -0.430500 0.000001 -73.822900 7.724848 1.134614 -2.765485 19.796699 -2.840147 -63.812945 2.068292 -4.621448 52.440670 -3.319969 -8.443577 -23.130818 -177.803900 -0.000000 -14.867100 5.477217 -2.997423 10.924379 0.474058 -2.898420 -0.846953 -5.347695 -2.892918 -0.769409 7.107558 -7.262695 -5.698789 -3.194602 -0.231190 0.111415 0.000000 0.000000 0.000000 3.798167 3.318840 1.704870 -56.794340 -7.802275 9.355357 0.075046 -89.260500 -0.008903 0.354388 6.024379 0.023113 -0.086744 0.262947 0.000000 0.000000 0.000000 0.000000 0.000000 0.000000 0.000000 10.808797 -4.602001 1.809208 72.569271 -9.310389 1.599296 0.990966 59.664294 -0.013247 -4.804557 0.805093 -0.041547 0.072131 -0.183461 -0.000000 0.000000 0.000000 0.000000 0.000000 0.000000 0.000000 
-1.910171 15.856370 -0.699452 48.052601 83.013625 73.956036 -12.281577 1.239894 -5.352446 -4.362464 13.808954 -28.686492 -0.353329 4.167662 60.286772 0.452936 -1.699354 5.644787 -0.514900 0.000000 -70.943100 7.788599 1.170939 -2.842474 19.673587 -2.992572 -63.419998 2.026481 -4.644670 53.142552 -3.322348 -8.303827 -23.876726 -177.666200 0.000000 -14.997800 5.463640 -2.967531 10.962885 0.473121 -2.866727 -0.846978 -5.327195 -2.863380 -0.788924 7.211503 -6.987585 -5.548831 -3.187114 -0.231926 0.152677 0.000000 0.000000 0.000000 3.739281 3.236342 1.731913 -57.545425 -7.128358 9.942211 0.000506 -88.151405 -0.006720 0.050259 5.936087 0.007295 -0.080057 0.256180 0.000000 0.000000 0.000000 0.000000 0.000000 0.000000 0.000000 10.862332 -4.350661 1.742365 72.603686 -8.114261 1.271246 0.972959 59.517013 -0.014520 -5.093167 0.750191 -0.041751 0.074317 -0.186865 -0.000000 0.000000 0.000000 0.000000 0.000000 0.000000 0.000000 
-1.786651 15.849638 -0.643794 47.369771 82.706595 73.192120 -12.285524 1.236132 -5.324429 -4.355740 13.674402 -29.066644 -0.201574 4.231297 61.375157 0.536572 -1.488942 7.165110 -0.561599 -0.000000 -67.441700 7.851276 1.201838 -2.915394 19.563993 -3.154558 -63.050540 1.988963 -4.667626 53.805933 -3.311862 -8.131733 -24.529639 -177.557801 0.000000 -15.164800 5.450649 -2.934715 10.993552 0.472043 -2.833108 -0.848225 -5.306099 -2.832129 -0.807812 7.308343 -6.714702 -5.403320 -3.176010 -0.232377 0.192608 0.000000 0.000000 0.000000 3.650975 3.158863 1.766476 -58.267541 -6.462223 10.508833 -0.078176 -86.977030 -0.004607 -0.265434 5.854017 -0.008523 -0.073542 0.249030 0.000000 0.000000 0.000000 0.000000 0.000000 0.000000 0.000000 10.896065 -4.097417 1.671717 72.642893 -6.901411 0.946114 0.950618 59.428179 -0.015952 -5.407410 0.691852 -0.041756 0.076669 -0.190605 -0.000000 0.000000 0.000000 0.000000 0.000000 0.000000 0.000000 
-1.665203 15.844918 -0.589305 46.559473 82.386817 72.320254 -12.284542 1.225641 -5.297251 -4.390586 13.539119 -29.501399 -0.064361 4.292795 62.445819 0.625893 -1.138398 8.444710 -0.554700 -0.000000 -63.408500 7.912686 1.227275 -2.984463 19.473019 -3.321511 -62.704298 1.956347 -4.690410 54.434280 -3.288184 -7.920886 -25.100948 -177.478000 0.000000 -15.325300 5.438718 -2.897939 11.020676 0.470971 -2.796257 -0.850146 -5.283824 -2.797867 -0.827851 7.394935 -6.442017 -5.264216 -3.161344 -0.232524 0.230550 0.000000 0.000000 0.000000 3.533483 3.087595 1.808995 -58.959454 -5.796266 11.046859 -0.160311 -85.747810 -0.002632 -0.582360 5.780120 -0.024042 -0.067369 0.241551 0.000000 0.000000 0.000000 0.000000 0.000000 0.000000 0.000000 10.906702 -3.837713 1.598308 72.684741 -5.674179 0.640196 0.923954 59.402339 -0.017547 -5.745694 0.628365 -0.041361 0.079182 -0.194694 -0.000000 0.000000 0.000000 0.000000 0.000000 0.000000 0.000000 
-1.545916 15.842242 -0.535979 45.571202 82.052550 71.291840 -12.278043 1.209241 -5.273860 -4.461981 13.416234 -29.992433 0.058440 4.354317 63.494867 0.718410 -0.634638 9.441133 -0.482600 0.000000 -59.164200 7.972594 1.246933 -3.047989 19.403622 -3.483588 -62.377385 1.929516 -4.711853 55.022525 -3.252758 -7.670390 -25.605115 -177.424400 -0.000001 -15.435700 5.427383 -2.856254 11.045604 0.469994 -2.755024 -0.852718 -5.259616 -2.759442 -0.850299 7.469429 -6.164013 -5.132461 -3.143096 -0.232360 0.266202 0.000000 0.000000 0.000000 3.390550 3.027286 1.859703 -59.623633 -5.126928 11.550378 -0.245339 -84.470341 -0.000844 -0.892446 5.715278 -0.038960 -0.061668 0.233822 0.000000 0.000000 0.000000 0.000000 0.000000 0.000000 0.000000 10.891666 -3.563621 1.522498 72.727032 -4.438433 0.370900 0.893309 59.441898 -0.019304 -6.102560 0.565874 -0.040766 0.081813 -0.199186 -0.000000 0.000000 0.000000 0.000000 0.000000 0.000000 0.000000 
-1.428830 15.841534 -0.483659 44.390469 81.699792 70.089782 -12.264624 1.188696 -5.257420 -4.567311 13.317163 -30.535794 0.167646 4.417807 64.520684 0.811952 0.025583 10.118291 -0.341000 -0.000000 -54.863900 8.032345 1.261528 -3.106208 19.355158 -3.639403 -62.063227 1.909577 -4.731580 55.569111 -3.205803 -7.374482 -26.058324 -177.395400 0.000000 -15.461399 5.413186 -2.809253 11.071901 0.468447 -2.708684 -0.855419 -5.233186 -2.716079 -0.876281 7.531249 -5.883012 -5.008675 -3.121192 -0.231880 0.299390 0.000000 0.000000 0.000000 3.228108 2.974424 1.917439 -60.260390 -4.440999 12.012627 -0.332150 -83.157293 0.000700 -1.183014 5.660729 -0.052678 -0.056562 0.225883 0.000000 0.000000 0.000000 0.000000 0.000000 0.000000 0.000000 10.850128 -3.276232 1.445005 72.770423 -3.196081 0.153738 0.859152 59.549855 -0.021195 -6.468274 0.500121 -0.039772 0.084498 -0.204039 -0.000000 0.000000 0.000000 0.000000 0.000000 0.000000 0.000000 
-1.313937 15.842579 -0.432123 43.027306 81.325409 68.723575 -12.242810 1.165068 -5.249394 -4.703835 13.247352 -31.127972 0.264643 4.483981 65.518494 0.906055 0.840610 10.465079 -0.133500 0.000000 -50.778800 8.093094 1.271532 -3.157996 19.324743 -3.783988 -61.754796 1.897382 -4.748611 56.067851 -3.148564 -7.032410 -26.473967 -177.389100 0.000000 -15.375800 5.392108 -2.756874 11.100181 0.465683 -2.656959 -0.858180 -5.204025 -2.667439 -0.906181 7.580887 -5.599600 -4.892692 -3.095359 -0.231080 0.330208 0.000000 0.000000 0.000000 3.053948 2.927899 1.980965 -60.872692 -3.729997 12.429084 -0.419711 -81.817568 0.001974 -1.445716 5.616236 -0.064895 -0.052104 0.217797 0.000000 0.000000 0.000000 0.000000 0.000000 0.000000 0.000000 10.781292 -2.975346 1.366019 72.815015 -1.950888 0.004859 0.822310 59.725751 -0.023186 -6.830720 0.435008 -0.038378 0.087151 -0.209253 -0.000000 0.000000 0.000000 0.000000 0.000000 0.000000 0.000000 
